<svg xmlns:xlink="http://www.w3.org/1999/xlink" width="58" height="8" viewBox="0 0 58 8" fill="none" xmlns="http://www.w3.org/2000/svg"><path opacity="0.5" d="M4.93 6.21C4.93 6.70333 4.75333 7.12667 4.4 7.48C4.05333 7.82667 3.63333 8 3.14 8H2.42C1.92667 8 1.50333 7.82667 1.15 7.48C0.803333 7.12667 0.63 6.70333 0.63 6.21V2.62C0.63 2.12667 0.803333 1.70667 1.15 1.36C1.50333 1.00667 1.92667 0.83 2.42 0.83H3.14C3.63333 0.83 4.05333 1.00667 4.4 1.36C4.75333 1.70667 4.93 2.12667 4.93 2.62V6.21ZM3.85 6.21V2.62C3.85 2.42667 3.78 2.26 3.64 2.12C3.5 1.98 3.33333 1.91 3.14 1.91H2.42C2.22667 1.91 2.05667 1.98 1.91 2.12C1.77 2.26 1.7 2.42667 1.7 2.62V6.21C1.7 6.40333 1.77 6.57 1.91 6.71C2.05667 6.85 2.22667 6.92 2.42 6.92H3.14C3.33333 6.92 3.5 6.85 3.64 6.71C3.78 6.57 3.85 6.40333 3.85 6.21ZM12.4866 6.21C12.4866 6.70333 12.31 7.12667 11.9566 7.48C11.61 7.82667 11.19 8 10.6966 8H9.88664C9.49997 8 9.14997 7.89 8.83664 7.67C8.52331 7.44333 8.30997 7.15 8.19664 6.79C8.16331 6.71667 8.18997 6.66 8.27664 6.62L9.04664 6.37C9.12664 6.34333 9.18331 6.37333 9.21664 6.46C9.33664 6.76667 9.55997 6.92 9.88664 6.92H10.6966C10.89 6.92 11.0566 6.85 11.1966 6.71C11.3366 6.57 11.4066 6.40333 11.4066 6.21V5.49C11.4066 5.29 11.3366 5.12 11.1966 4.98C11.0566 4.84 10.89 4.77 10.6966 4.77H8.50664C8.41331 4.77 8.36997 4.72667 8.37664 4.64L8.53664 0.959999C8.54997 0.873333 8.59664 0.83 8.67664 0.83H12.1766C12.2633 0.83 12.3066 0.876667 12.3066 0.97V1.77C12.3066 1.86333 12.2633 1.91 12.1766 1.91H9.57664L9.48664 3.7H10.6966C11.19 3.7 11.61 3.87667 11.9566 4.23C12.31 4.57667 12.4866 4.99667 12.4866 5.49V6.21ZM19.1433 7.86C19.1433 7.95333 19.0999 8 19.0133 8H15.6933C15.6066 8 15.5633 7.95333 15.5633 7.86V7.06C15.5633 6.96667 15.6066 6.92 15.6933 6.92H16.8133V1.91H15.6933C15.6066 1.91 15.5633 1.86333 15.5633 1.77V0.97C15.5633 0.876667 15.6066 0.83 15.6933 0.83H17.7533C17.8466 0.83 17.8933 0.876667 17.8933 0.97V6.92H19.0133C19.0999 6.92 19.1433 6.96667 19.1433 7.06V7.86ZM26.2757 2.98C26.2757 3.58 26.0024 4 25.4557 4.24C26.0024 4.46667 26.2757 4.88333 26.2757 5.49V6.21C26.2757 6.70333 26.099 7.12667 25.7457 7.48C25.399 7.82667 24.979 8 24.4857 8H23.7757C23.3624 8 22.9957 7.88 22.6757 7.64C22.3557 7.4 22.149 7.09 22.0557 6.71C22.029 6.61 22.0624 6.55333 22.1557 6.54L22.9657 6.4C23.0324 6.38667 23.079 6.41333 23.1057 6.48C23.2257 6.77333 23.449 6.92 23.7757 6.92H24.4857C24.6857 6.92 24.8557 6.85 24.9957 6.71C25.1357 6.57 25.2057 6.40333 25.2057 6.21V5.49C25.2057 5.29 25.1357 5.12 24.9957 4.98C24.8557 4.84 24.6857 4.77 24.4857 4.77H23.5457C23.459 4.77 23.4157 4.72667 23.4157 4.64V3.83C23.4157 3.74333 23.459 3.7 23.5457 3.7H24.4857C24.6857 3.7 24.8557 3.63 24.9957 3.49C25.1357 3.35 25.2057 3.18 25.2057 2.98V2.62C25.2057 2.42667 25.1357 2.26 24.9957 2.12C24.8557 1.98 24.6857 1.91 24.4857 1.91H23.7757C23.449 1.91 23.2257 2.05667 23.1057 2.35C23.079 2.41667 23.0324 2.44333 22.9657 2.43L22.1557 2.29C22.049 2.27 22.0157 2.21333 22.0557 2.12C22.1624 1.74 22.3724 1.43 22.6857 1.19C23.0057 0.95 23.369 0.83 23.7757 0.83H24.4857C24.979 0.83 25.399 1.00667 25.7457 1.36C26.099 1.70667 26.2757 2.12667 26.2757 2.62V2.98ZM32.9382 7.86C32.9382 7.95333 32.8949 8 32.8082 8H29.4882C29.4015 8 29.3582 7.95333 29.3582 7.86V7.06C29.3582 6.96667 29.4015 6.92 29.4882 6.92H30.6082V1.91H29.4882C29.4015 1.91 29.3582 1.86333 29.3582 1.77V0.97C29.3582 0.876667 29.4015 0.83 29.4882 0.83H31.5482C31.6415 0.83 31.6882 0.876667 31.6882 0.97V6.92H32.8082C32.8949 6.92 32.9382 6.96667 32.9382 7.06V7.86ZM39.4206 7.86C39.4206 7.95333 39.3773 8 39.2906 8H35.9706C35.884 8 35.8406 7.95333 35.8406 7.86V7.06C35.8406 6.96667 35.884 6.92 35.9706 6.92H37.0906V1.91H35.9706C35.884 1.91 35.8406 1.86333 35.8406 1.77V0.97C35.8406 0.876667 35.884 0.83 35.9706 0.83H38.0306C38.124 0.83 38.1706 0.876667 38.1706 0.97V6.92H39.2906C39.3773 6.92 39.4206 6.96667 39.4206 7.06V7.86ZM43.753 7.86C43.753 7.95333 43.7097 8 43.623 8H42.633C42.5464 8 42.503 7.95333 42.503 7.86V6.88C42.503 6.78667 42.5464 6.74 42.633 6.74H43.623C43.7097 6.74 43.753 6.78667 43.753 6.88V7.86ZM51.3128 6.21C51.3128 6.70333 51.1361 7.12667 50.7828 7.48C50.4361 7.82667 50.0161 8 49.5228 8H48.8028C48.3095 8 47.8861 7.82667 47.5328 7.48C47.1861 7.12667 47.0128 6.70333 47.0128 6.21V2.62C47.0128 2.12667 47.1861 1.70667 47.5328 1.36C47.8861 1.00667 48.3095 0.83 48.8028 0.83H49.5228C50.0161 0.83 50.4361 1.00667 50.7828 1.36C51.1361 1.70667 51.3128 2.12667 51.3128 2.62V6.21ZM50.2328 6.21V2.62C50.2328 2.42667 50.1628 2.26 50.0228 2.12C49.8828 1.98 49.7161 1.91 49.5228 1.91H48.8028C48.6095 1.91 48.4395 1.98 48.2928 2.12C48.1528 2.26 48.0828 2.42667 48.0828 2.62V6.21C48.0828 6.40333 48.1528 6.57 48.2928 6.71C48.4395 6.85 48.6095 6.92 48.8028 6.92H49.5228C49.7161 6.92 49.8828 6.85 50.0228 6.71C50.1628 6.57 50.2328 6.40333 50.2328 6.21ZM57.9695 7.86C57.9695 7.95333 57.9261 8 57.8395 8H54.5195C54.4328 8 54.3895 7.95333 54.3895 7.86V7.06C54.3895 6.96667 54.4328 6.92 54.5195 6.92H55.6395V1.91H54.5195C54.4328 1.91 54.3895 1.86333 54.3895 1.77V0.97C54.3895 0.876667 54.4328 0.83 54.5195 0.83H56.5795C56.6728 0.83 56.7195 0.876667 56.7195 0.97V6.92H57.8395C57.9261 6.92 57.9695 6.96667 57.9695 7.06V7.86Z" fill="#FFFFFF" fill-opacity="0.5"></path></svg>