<svg xmlns:xlink="http://www.w3.org/1999/xlink" width="205" height="63" viewBox="0 0 205 63" fill="none" xmlns="http://www.w3.org/2000/svg"><title>Available On Steam</title><path d="M31.3869 0C14.842 0 1.28797 12.7593 0 28.974L16.8802 35.9538C18.3097 34.9763 20.0386 34.4039 21.8979 34.4039C22.0643 34.4039 22.2295 34.4088 22.3947 34.4175L29.9027 23.5354C29.9027 23.4837 29.9014 23.4333 29.9014 23.3816C29.9014 16.8314 35.2297 11.5012 41.7788 11.5012C48.3279 11.5012 53.6561 16.8314 53.6561 23.3816C53.6561 29.9317 48.3279 35.2619 41.7788 35.2619C41.6881 35.2619 41.5987 35.2595 41.5093 35.257L30.8031 42.8978C30.8081 43.0381 30.8131 43.1785 30.8131 43.32C30.8131 48.2379 26.8138 52.2374 21.8991 52.2374C17.5844 52.2374 13.9764 49.1562 13.1579 45.0767L1.08552 40.085C4.82397 53.3071 16.9696 63 31.3881 63C48.7825 63 62.883 48.8965 62.883 31.5012C62.8806 14.1035 48.7812 0 31.3869 0Z" fill="#FFFFFF"></path><path d="M19.7368 47.7973L15.8679 46.1995C16.5535 47.6262 17.7396 48.8215 19.3157 49.4788C22.7201 50.897 26.6449 49.2819 28.0645 45.8745C28.7513 44.2249 28.755 42.4055 28.0744 40.7548C27.395 39.1028 26.1108 37.8139 24.4614 37.1258C22.8244 36.445 21.0719 36.4697 19.5306 37.0507L23.5274 38.7039C26.0387 39.7515 27.2261 42.6345 26.1803 45.1457C25.1333 47.657 22.2469 48.8437 19.7368 47.7973Z" fill="#FFFFFF"></path><path d="M35.8454 23.3681C35.8454 20.0838 38.5083 17.4224 41.7909 17.4224C45.076 17.4224 47.7364 20.0838 47.7364 23.3681C47.7364 26.6524 45.0748 29.3138 41.7909 29.3138C38.5083 29.3138 35.8454 26.6511 35.8454 23.3681ZM49.6926 23.3816C49.6926 19.0165 46.1417 15.4651 41.7785 15.4651C37.4141 15.4651 33.8644 19.0165 33.8644 23.3816C33.8644 27.7455 37.4141 31.2957 41.7785 31.2957C46.1417 31.2957 49.6926 27.7455 49.6926 23.3816Z" fill="#FFFFFF"></path><path d="M95.9581 21.8438L93.9112 25.4433C92.3351 24.3403 90.1989 23.678 88.3321 23.678C86.2008 23.678 84.8818 24.5606 84.8818 26.1412C84.8818 28.0628 87.2255 28.5097 90.7081 29.7604C94.4515 31.0837 96.6039 32.6422 96.6039 36.0693C96.6039 40.7618 92.9139 43.3961 87.613 43.3961C85.0283 43.3961 81.9109 42.7289 79.5138 41.2714L81.0079 37.2806C82.9542 38.3097 85.2842 38.919 87.3596 38.919C90.1579 38.919 91.4881 37.8862 91.4881 36.3598C91.4881 34.613 89.4598 34.0873 86.1859 33.0041C82.4549 31.7583 79.869 30.1223 79.869 26.3271C79.869 22.0482 83.297 19.5886 88.2278 19.5886C91.6619 19.5899 94.4254 20.6793 95.9581 21.8438Z" fill="#FFFFFF"></path><path d="M111.959 24.1187V43.0022H107.14V24.1187H100.142V19.9838H118.934V24.1187H111.959Z" fill="#FFFFFF"></path><path d="M129.094 24.1052V29.2926H138.318V33.4263H129.094V38.8304H139.796V43.0022H124.276V19.9838H139.796V24.1052H129.094Z" fill="#FFFFFF"></path><path d="M155.005 25.4753L151.862 34.6918H158.214L155.005 25.4753ZM150.553 38.5337L149.029 43.0022H143.977L152.606 19.9838H157.458L166.332 43.0022H161.108L159.552 38.5337H150.553Z" fill="#FFFFFF"></path><path d="M191.066 28.8815L184.769 42.3313H182.049L175.853 29.0009V43.0022H171.238V19.9838H175.842L183.578 36.5998L191.037 19.9838H195.682V43.0022H191.068L191.066 28.8815Z" fill="#FFFFFF"></path><path d="M201.268 22.7241H201.83C202.194 22.7241 202.409 22.4964 202.409 22.2083C202.409 21.9191 202.255 21.7319 201.829 21.7319H201.268V22.7241ZM201.861 21.2519C202.686 21.2519 202.963 21.6889 202.963 22.1603C202.963 22.5924 202.707 22.8829 202.395 23.0306L203.135 24.4168H202.528L201.905 23.1882H201.262V24.4168H200.757V21.2519H201.861ZM199.159 22.8879C199.159 24.5423 200.351 25.5813 201.817 25.5813C203.277 25.5813 204.463 24.5423 204.463 22.8879C204.463 21.2285 203.277 20.2043 201.817 20.2043C200.354 20.2043 199.159 21.2408 199.159 22.8879ZM205 22.8879C205 24.8661 203.517 26.0983 201.817 26.0983C200.11 26.0983 198.624 24.8661 198.624 22.8879C198.624 20.9096 200.11 19.6848 201.817 19.6848C203.517 19.6848 205 20.9096 205 22.8879Z" fill="#FFFFFF"></path></svg>