<svg xmlns:xlink="http://www.w3.org/1999/xlink" width="200" height="62" viewBox="0 0 200 62" fill="none" xmlns="http://www.w3.org/2000/svg"><title>Available On Xbox</title><path d="M195.21 50.081L183.563 33.9577L171.928 50.081H167.135L181.138 30.6007L168.35 12.8934H173.143L183.563 27.335L193.983 12.8934H198.773L185.995 30.5975L200 50.081H195.21ZM104.451 50.0745L90.433 30.5975L103.221 12.8934H98.4279L88.0045 27.3383L77.5907 12.8934H72.8104L85.592 30.5975L71.5769 50.0745H76.3764L88.0109 33.9577L99.6549 50.0745H104.451Z" fill="#FFFFFF"></path><path d="M131.101 32.0055C130.379 31.3776 129.574 30.8555 128.711 30.4541C130.036 29.7359 131.144 28.6632 131.916 27.3512C132.689 26.0391 133.096 24.5372 133.095 23.0068C133.095 20.6275 132.235 12.8902 121.243 12.8902H106.439V28.9222H101.508C100.869 29.7729 99.4152 31.8164 98.8624 32.654H106.439V50.0745L121.246 50.0778C129.267 50.0778 134.248 45.9255 134.248 39.2213C134.248 36.2946 133.165 33.8078 131.101 32.0055ZM110.532 16.7719H121.246C124.144 16.7719 129.001 17.5085 129.001 22.6809C129.001 26.5919 126.174 28.9222 121.246 28.9222H110.532V16.7719ZM121.243 46.1993H110.529V32.6638H121.243C125.304 32.6638 130.165 33.8078 130.165 39.1399C130.165 45.2802 124.576 46.1993 121.243 46.1993ZM153.507 12.0363C143.266 12.0363 136.108 20.0246 136.108 31.4644C136.108 42.9206 143.266 50.9024 153.507 50.9024C163.739 50.9024 170.877 42.9206 170.877 31.4644C170.877 20.0246 163.739 12.0363 153.507 12.0363ZM153.507 46.9685C145.704 46.9685 140.236 40.5902 140.236 31.4644C140.236 22.3386 145.704 15.9636 153.507 15.9636C161.297 15.9636 166.733 22.3386 166.733 31.4644C166.733 40.5902 161.297 46.9685 153.507 46.9685ZM9.03981 8.94002V8.94327C6.17235 11.8228 3.89611 15.2562 2.34402 19.043C0.791921 22.8298 -0.00491876 26.894 2.82073e-05 30.9984C-0.00905155 37.7834 2.17414 44.3825 6.21188 49.7747C6.25342 49.8268 6.31733 49.8562 6.37485 49.8268C6.42917 49.7942 6.43236 49.7258 6.41 49.6671C4.09333 42.36 15.9355 24.6494 22.0547 17.2249C22.0738 17.1989 22.0994 17.1695 22.0994 17.1337C22.0994 17.0913 22.0706 17.0587 22.0419 17.0326C11.7495 6.58361 9.00146 8.97261 9.03981 8.94002ZM51.7143 8.91394L51.7431 8.94002V8.94327C54.6103 11.8229 56.8861 15.2564 58.4377 19.0432C59.9892 22.83 60.7854 26.8942 60.7797 30.9984C60.7888 37.7834 58.6056 44.3825 54.5678 49.7747C54.5295 49.8268 54.4624 49.8562 54.4049 49.8268C54.3537 49.7942 54.3506 49.7258 54.3697 49.6671C56.6864 42.36 44.8538 24.6364 38.7378 17.2086C38.7155 17.1826 38.6931 17.1532 38.6931 17.1206C38.6931 17.075 38.7187 17.0424 38.7506 17.0163C49.0462 6.56731 51.7751 8.97261 51.7399 8.94002L51.7143 8.91394ZM30.3915 0C36.5234 0 41.569 1.71434 46.2215 4.53682C46.279 4.56615 46.295 4.63134 46.2726 4.69C46.2502 4.74541 46.1863 4.75845 46.1256 4.74215C40.2429 3.44499 31.299 8.63039 30.4554 9.14861C30.4362 9.16164 30.417 9.17468 30.3915 9.17468C30.3627 9.17468 30.3435 9.16164 30.3244 9.14861C28.0812 7.83514 19.8147 3.41565 14.6094 4.77474C14.5519 4.78778 14.488 4.778 14.4624 4.71934C14.4515 4.69179 14.4507 4.66117 14.46 4.63305C14.4694 4.60493 14.4884 4.58119 14.5135 4.56615C19.166 1.71435 24.2755 0 30.3915 0ZM30.3915 24.8613C30.4266 24.8613 30.465 24.8906 30.4873 24.9102C39.5814 31.9631 55.1462 49.3999 50.3946 54.3311L50.401 54.3245L50.3978 54.3311H50.3915C44.8599 59.2833 37.7484 62.0097 30.3883 62C23.0272 62.009 15.9151 59.2827 10.3819 54.3311C5.63991 49.3999 21.2015 31.9631 30.286 24.9102C30.3116 24.8906 30.3531 24.8613 30.3915 24.8613Z" fill="#FFFFFF"></path></svg>