<svg xmlns:xlink="http://www.w3.org/1999/xlink" width="55" height="38" viewBox="0 0 55 38" fill="none" xmlns="http://www.w3.org/2000/svg"><path d="M53.153 5.934a6.798 6.798 0 0 0-4.8-4.799C44.117 0 27.142 0 27.142 0S10.166 0 5.934 1.135a6.798 6.798 0 0 0-4.799 4.8C0 10.164 0 19 0 19s0 8.834 1.135 13.066a6.798 6.798 0 0 0 4.8 4.799C10.164 38 27.141 38 27.141 38s16.975 0 21.207-1.135a6.798 6.798 0 0 0 4.8-4.8C54.282 27.836 54.282 19 54.282 19s0-8.834-1.13-13.066zm-31.44 21.208V10.858L35.814 19l-14.103 8.142z" fill="#FFFFFF"></path></svg>