<svg xmlns:xlink="http://www.w3.org/1999/xlink" width="23" height="24" viewBox="0 0 23 24" fill="none" xmlns="http://www.w3.org/2000/svg"><path d="M22.023 11.797c0 3.276-1.083 6.058-3.25 8.346-2.167 2.289-4.754 3.433-7.772 3.433-3.019 0-5.606-1.144-7.762-3.433C1.083 17.855 0 15.073 0 11.797s1.083-6.07 3.25-8.37C5.406 1.15 7.993.005 11.012.005c3.018 0 5.605 1.144 7.75 3.42 2.178 2.3 3.261 5.095 3.261 8.37zm-.73.084v-.421c-1.956-.23-2.94-.35-2.951-.35-.044 0-.542.049-1.493.157l.564 1.18-1.448.566-.83-2.035-.265.168c.465.94.73 1.843.774 2.722a82.651 82.651 0 0 0-1.448 1.915c.01 1.397-.133 2.65-.41 3.794l-1.448 1.361-1.039-.746a26.098 26.098 0 0 0-.73-4.806l-.884-1.361-1.968-.506-.509-1.3.343-1.88c.575-.18 1.393-.517 2.466-1 .254.194.564.314.95.386.332.06.664.109.995.157.011 0 .487.144 1.427.434.564.168 1.05.264 1.459.288l.464-1.24h-.563l-.332-1.903-1.415-.06.088.614.719.988-.564-.313.133.457-.995.265.387-.313-.288-.88-.663-.517-.542.542-.752-.145-.464.928-.863-.47.664-.88.995-.312.42-.663 1.47-.722.332-.41.332-1.493-.896.494.41.252-.63.639-.233-.687-.32.53-.952-.891 2.046-1.927h1.68l.177-1.072a9.36 9.36 0 0 0-3.527-.687c-1.348 0-2.476.205-3.36.603.198.168.309.361.309.566 0 .096-.088.168-.276.217l-.376.072c-.354.132-.719.35-1.084.65-.365.313-.707.867-1.017 1.662-.254.627-.52.94-.807.94-.177 0-.343-.169-.486-.506-.144-.337-.21-.506-.222-.506-.276 0-.53.072-.751.229-.597.47-1.172 1.433-1.714 2.939-.553 1.53-.83 2.998-.83 4.396 0 3.095 1.007 5.708 3.03 7.84 2.023 2.132 4.456 3.192 7.297 3.192 2.841 0 5.296-1.084 7.341-3.24 2.045-2.168 3.074-4.806 3.074-7.9zM9.199 4.125l-.375.313-.63.096.243-.879h.619l.143.47zm.907 1.746l-.332.41-.143-.458.243-.421.232.47zm1.316-.048l-.52.566-.475-.048.43-.566-.275-.108-.31-.603.166-.481.984 1.24zm.575 3.144l-.045.505-.43-.505h.475z" fill="#FFFFFF"></path></svg>