<svg xmlns:xlink="http://www.w3.org/1999/xlink" width="40" height="40" viewBox="0 0 40 40" fill="none" xmlns="http://www.w3.org/2000/svg"><path d="M20 3.603c5.34 0 5.972.021 8.081.117 1.95.09 3.01.415 3.714.688.934.363 1.6.797 2.3 1.496.7.7 1.134 1.366 1.496 2.3.274.705.6 1.764.688 3.714.096 2.108.117 2.741.117 8.082 0 5.34-.02 5.972-.117 8.081-.089 1.95-.414 3.01-.688 3.714-.363.934-.797 1.6-1.496 2.3-.7.7-1.366 1.134-2.3 1.496-.705.274-1.764.6-3.714.688-2.108.096-2.74.117-8.081.117-5.34 0-5.974-.02-8.082-.117-1.95-.089-3.009-.414-3.714-.688-.934-.363-1.6-.797-2.3-1.496-.7-.7-1.134-1.366-1.496-2.3-.273-.705-.599-1.764-.688-3.714-.096-2.108-.117-2.74-.117-8.081 0-5.34.021-5.973.117-8.082.09-1.95.415-3.009.688-3.714.363-.934.797-1.6 1.496-2.3.7-.7 1.366-1.134 2.3-1.496.705-.273 1.764-.599 3.714-.688 2.11-.096 2.741-.117 8.082-.117zM20 0c-5.432 0-6.113.023-8.246.12-2.129.098-3.583.436-4.855.93a9.795 9.795 0 0 0-3.542 2.307A9.796 9.796 0 0 0 1.05 6.9C.556 8.17.218 9.625.12 11.754.024 13.887 0 14.568 0 20c0 5.431.023 6.113.12 8.246.098 2.128.436 3.582.93 4.854a9.795 9.795 0 0 0 2.307 3.543A9.802 9.802 0 0 0 6.9 38.95c1.271.494 2.726.832 4.854.93 2.133.097 2.815.12 8.246.12 5.432 0 6.113-.023 8.247-.12 2.128-.098 3.582-.436 4.854-.93a9.796 9.796 0 0 0 3.543-2.307A9.803 9.803 0 0 0 38.95 33.1c.495-1.272.833-2.726.93-4.854.098-2.133.12-2.815.12-8.246 0-5.432-.022-6.113-.12-8.246-.097-2.129-.435-3.583-.93-4.855a9.796 9.796 0 0 0-2.306-3.542A9.802 9.802 0 0 0 33.1 1.05C31.828.556 30.374.218 28.246.12 26.113.024 25.43 0 20 0z" fill="#FFFFFF"></path><path d="M20 9.73C14.326 9.73 9.73 14.328 9.73 20c0 5.671 4.598 10.27 10.27 10.27 5.67 0 10.269-4.599 10.269-10.27 0-5.672-4.597-10.27-10.27-10.27zm0 16.936a6.666 6.666 0 1 1 0-13.333 6.666 6.666 0 0 1 0 13.333zM30.676 11.723a2.4 2.4 0 1 0 0-4.8 2.4 2.4 0 0 0 0 4.8z" fill="#FFFFFF"></path></svg>