<svg xmlns:xlink="http://www.w3.org/1999/xlink" width="25" height="40" viewBox="0 0 35 40" fill="none" xmlns="http://www.w3.org/2000/svg"><path d="M33.807 8.786c-4.198 0-7.614-3.416-7.614-7.614C26.193.524 25.669 0 25.021 0h-6.277c-.646 0-1.171.524-1.171 1.172v25.732a4.482 4.482 0 0 1-4.477 4.477 4.482 4.482 0 0 1-4.476-4.477 4.481 4.481 0 0 1 4.476-4.477c.648 0 1.172-.524 1.172-1.171v-6.277c0-.647-.524-1.172-1.172-1.172C5.875 13.807 0 19.682 0 26.904 0 34.126 5.875 40 13.096 40s13.097-5.875 13.097-13.096v-11.39a16.117 16.117 0 0 0 7.614 1.892c.648 0 1.172-.524 1.172-1.172V9.958c0-.647-.524-1.172-1.172-1.172z" fill="#FFFFFF"></path></svg>