<svg xmlns:xlink="http://www.w3.org/1999/xlink" width="47" height="38" viewBox="0 0 47 38" fill="none" xmlns="http://www.w3.org/2000/svg"><path d="M14.682 38c17.629 0 27.287-14.624 27.287-27.287 0-.413 0-.826-.023-1.239a19.36 19.36 0 0 0 4.783-4.978 19.261 19.261 0 0 1-5.517 1.514A9.598 9.598 0 0 0 45.432.7a18.65 18.65 0 0 1-6.09 2.328A9.566 9.566 0 0 0 32.345 0c-5.287 0-9.589 4.301-9.589 9.589 0 .745.092 1.48.241 2.19-7.96-.39-15.025-4.22-19.762-10.024A9.582 9.582 0 0 0 1.95 6.584a9.6 9.6 0 0 0 4.267 7.983 9.672 9.672 0 0 1-4.336-1.193v.126c0 4.634 3.315 8.522 7.685 9.405-.803.23-1.64.333-2.523.333-.62 0-1.216-.057-1.801-.172A9.574 9.574 0 0 0 14.2 29.72a19.223 19.223 0 0 1-11.917 4.129c-.769 0-1.537-.035-2.283-.126A27.348 27.348 0 0 0 14.682 38z" fill="#FFFFFF"></path></svg>